<?xml version="1.0" encoding="utf-8"?>
<!-- Generator: Adobe Illustrator 19.1.0, SVG Export Plug-In . SVG Version: 6.00 Build 0)  -->
<svg version="1.1" id="Layer_1" xmlns:sketch="http://www.bohemiancoding.com/sketch/ns"
	 xmlns="http://www.w3.org/2000/svg" xmlns:xlink="http://www.w3.org/1999/xlink" x="0px" y="0px" viewBox="-376 287 38 39"
	 style="enable-background:new -376 287 38 39;" xml:space="preserve">
<style type="text/css">
	.st0{fill:#FFFFFF;}
</style>
<title>instagram</title>
<desc>Created with Sketch.</desc>
<g id="dribble-_x2B_-instagram-_x2B_-twitter" transform="translate(80.000000, 470.000000)" sketch:type="MSBitmapLayer">
	<g>
		<path class="st0" d="M-419-163.4c0,4.5,0,9,0,13.4c0,2.9-1.7,4.6-4.6,4.6c-9,0-17.9,0-26.9,0c-2.8,0-4.5-1.7-4.5-4.5
			c0-9.1,0-18.2,0-27.4c0-2.6,1.8-4.4,4.4-4.4c9.1,0,18.1,0,27.2,0c2.6,0,4.3,1.8,4.4,4.5C-419-172.6-419-168-419-163.4z
			 M-437-149.4c3.9,0,7.8,0,11.8,0c1.3,0,2.2-0.5,2.2-1.9c0-4.6,0-9.2,0-13.8c0-0.8-0.2-1.1-1.1-1.1c-1.4-0.1-2.3,0.2-2,1.9
			c0.1,0.4,0,0.8,0,1.2c0,4.3-1.9,7.4-5.6,9.4c-3.8,2.1-7.7,2-11.3-0.3c-3.9-2.4-5.4-6.1-5-10.6c0.1-1.2-0.3-1.6-1.5-1.5
			c-1.1,0-1.6,0.3-1.6,1.5c0.1,4.3,0,8.5,0,12.8c0,2.2,0.3,2.5,2.5,2.6C-444.6-149.4-440.8-149.4-437-149.4z M-430.1-163.3
			c0-3.9-3.1-7.2-6.8-7.3c-3.9,0-7,3.2-7,7.2c0,3.9,3,6.9,6.9,6.9S-430.1-159.5-430.1-163.3z M-423-174.1c0-3.5,0-3.5-3-3.5
			c-3.9,0-4,0.1-4,3.1c0,4,0,4,3.1,4C-423-170.6-423-170.6-423-174.1z"/>
	</g>
</g>
</svg>
