<?xml version="1.0" encoding="UTF-8" standalone="no"?>
<svg width="269px" height="110px" viewBox="0 0 269 110" version="1.1" xmlns="http://www.w3.org/2000/svg" xmlns:xlink="http://www.w3.org/1999/xlink" xmlns:sketch="http://www.bohemiancoding.com/sketch/ns">
    <!-- Generator: Sketch 3.3.3 (12081) - http://www.bohemiancoding.com/sketch -->
    <title>Blue Inverted</title>
    <desc>Created with Sketch.</desc>
    <defs></defs>
    <g id="Page-1" stroke="none" stroke-width="1" fill="none" fill-rule="evenodd" sketch:type="MSPage">
        <g id="Engineering-Elements" sketch:type="MSArtboardGroup" transform="translate(-224.000000, -188.000000)">
            <g id="Top-Navigation" sketch:type="MSLayerGroup" transform="translate(174.000000, 172.000000)">
                <g id="Blue-Inverted" transform="translate(50.000000, 16.000000)" sketch:type="MSShapeGroup">
                    <path d="M0.149196272,0.175542313 L268.526666,0.175542313 L268.526666,109.379007 L0.149196272,109.379007 L0.149196272,0.175542313 Z" id="Fill-1" fill="#39D5FF"></path>
                    <path d="M108.835373,36.4644813 C108.835373,35.9108388 109.276515,35.41398 109.82921,35.41398 L123.321049,35.41398 C133.99161,35.41398 142.729259,44.0927838 142.729259,54.7083226 C142.729259,65.4333731 133.99161,74.1142049 123.321049,74.1142049 L109.82921,74.1142049 C109.276515,74.1142049 108.835373,73.6163322 108.835373,73.0637036 L108.835373,36.4644813 L108.835373,36.4644813 Z M123.264259,65.9312458 C129.514274,65.9312458 133.550468,61.0113304 133.550468,54.7083226 C133.550468,48.4610846 129.514274,43.5411692 123.264259,43.5411692 L117.460456,43.5411692 L117.460456,65.9312458 L123.264259,65.9312458 L123.264259,65.9312458 Z" id="Fill-6" fill="#FFFFFF"></path>
                    <path d="M147.426658,49.7873932 C147.426658,49.068469 147.979353,48.5716103 148.641573,48.5716103 L151.295522,48.5716103 C151.961798,48.5716103 152.292401,48.9031875 152.456689,49.3452903 L153.617855,52.1652171 C154.724259,50.1189704 156.659198,48.0179677 159.977395,48.0179677 C162.300742,48.0179677 164.015617,48.6263662 164.953677,49.3452903 C165.396847,49.6768675 165.396847,50.2294961 165.119993,50.7273688 L162.575568,55.7588239 C162.300742,56.2566966 161.857572,56.6440436 161.138561,56.3672223 C160.695391,56.2009268 159.756317,55.9798753 159.203622,55.9798753 C157.268683,55.9798753 155.830663,57.3619538 155.830663,59.5187263 L155.830663,72.897408 C155.830663,73.672102 155.387493,74.1142049 154.449432,74.1142049 L148.641573,74.1142049 C147.979353,74.1142049 147.426658,73.5605623 147.426658,72.897408 L147.426658,49.7873932" id="Fill-7" fill="#FFFFFF"></path>
                    <path d="M169.555749,40.2507476 C169.555749,37.5971164 171.657004,35.3866021 174.308925,35.3866021 C176.963889,35.3866021 179.12092,37.5971164 179.12092,40.2507476 C179.12092,42.849623 176.963889,45.0053815 174.308925,45.0053815 C171.657004,45.0053815 169.555749,42.849623 169.555749,40.2507476 L169.555749,40.2507476 Z M170.165235,49.7600153 C170.165235,49.0410911 170.715901,48.5442324 171.380149,48.5442324 L177.350268,48.5442324 C178.016544,48.5442324 178.567211,49.0410911 178.567211,49.7600153 L178.567211,72.8700301 C178.567211,73.5331844 178.016544,74.085813 177.350268,74.085813 L171.380149,74.085813 C170.715901,74.085813 170.165235,73.5331844 170.165235,72.8700301 L170.165235,49.7600153 L170.165235,49.7600153 Z" id="Fill-8" fill="#FFFFFF"></path>
                    <path d="M186.538186,56.1451569 L184.326393,56.1451569 C183.606368,56.1451569 183.10945,55.5935423 183.10945,54.929374 L183.10945,49.7873932 C183.10945,49.068469 183.606368,48.5716103 184.326393,48.5716103 L186.538186,48.5716103 L186.538186,46.4706077 C186.538186,39.6149713 190.13121,34.8603374 197.541378,34.8603374 C200.857547,34.8603374 204.231521,36.2424159 205.338939,37.2929172 C205.725318,37.5697385 205.833829,38.2328928 205.559002,38.7307655 L202.850291,43.4843854 C202.571408,43.9275022 201.963951,44.0927838 201.467032,43.8169765 C200.636469,43.3191038 199.422568,42.822245 198.148835,42.822245 C195.273807,42.822245 194.941176,44.4253749 194.941176,46.4706077 L194.941176,48.5716103 L201.356493,48.5716103 C202.018713,48.5716103 202.571408,49.068469 202.571408,49.7873932 L202.571408,54.929374 C202.571408,55.5935423 202.018713,56.1451569 201.356493,56.1451569 L194.941176,56.1451569 L194.941176,72.897408 C194.941176,73.5605623 194.333719,74.1142049 193.671499,74.1142049 L187.755129,74.1142049 C187.145644,74.1142049 186.538186,73.5605623 186.538186,72.897408 L186.538186,56.1451569" id="Fill-9" fill="#FFFFFF"></path>
                    <path d="M210.357814,56.117779 L208.256559,56.117779 C207.649102,56.117779 207.149141,55.5661644 207.149141,54.9019961 L207.149141,49.7600153 C207.149141,49.0410911 207.649102,48.5442324 208.256559,48.5442324 L210.357814,48.5442324 L210.357814,41.4675445 C210.357814,40.8033762 210.910509,40.2507476 211.574756,40.2507476 L217.655414,40.2507476 C218.2649,40.2507476 218.761818,40.8033762 218.761818,41.4675445 L218.761818,48.5442324 L223.904415,48.5442324 C224.566635,48.5442324 225.11933,49.0410911 225.11933,49.7600153 L225.11933,54.9019961 C225.11933,55.5661644 224.566635,56.117779 223.904415,56.117779 L218.761818,56.117779 L218.761818,65.0186482 C218.761818,66.2354451 219.369275,66.7880736 220.476693,66.7880736 C221.361005,66.7880736 223.018075,66.4007266 223.628575,66.2354451 C224.291809,66.0691495 224.899266,66.3459708 225.065582,67.0091251 L226.173,71.8195288 C226.337287,72.5942228 226.060432,72.9257999 225.342436,73.2573771 C223.628575,73.9763012 220.753548,74.6952254 218.042808,74.6952254 C213.178079,74.6952254 210.357814,71.5984773 210.357814,65.7933422 L210.357814,56.117779" id="Fill-10" fill="#FFFFFF"></path>
                    <path d="M233.032501,56.117779 L230.931246,56.117779 C230.323789,56.117779 229.823828,55.5661644 229.823828,54.9019961 L229.823828,49.7600153 C229.823828,49.0410911 230.323789,48.5442324 230.931246,48.5442324 L233.032501,48.5442324 L233.032501,41.4675445 C233.032501,40.8033762 233.58621,40.2507476 234.249444,40.2507476 L240.330101,40.2507476 C240.939587,40.2507476 241.437519,40.8033762 241.437519,41.4675445 L241.437519,48.5442324 L246.580117,48.5442324 C247.241322,48.5442324 247.795031,49.0410911 247.795031,49.7600153 L247.795031,54.9019961 C247.795031,55.5661644 247.241322,56.117779 246.580117,56.117779 L241.437519,56.117779 L241.437519,65.0186482 C241.437519,66.2354451 242.044976,66.7880736 243.15138,66.7880736 C244.035692,66.7880736 245.693777,66.4007266 246.303262,66.2354451 C246.966496,66.0691495 247.573953,66.3459708 247.740269,67.0091251 L248.847687,71.8195288 C249.011974,72.5942228 248.735119,72.9257999 248.017123,73.2573771 C246.303262,73.9763012 243.428235,74.6952254 240.717495,74.6952254 C235.85378,74.6952254 233.032501,71.5984773 233.032501,65.7933422 L233.032501,56.117779" id="Fill-11" fill="#FFFFFF"></path>
                    <path d="M58.1547756,13.3159346 C35.2529259,13.3159346 16.6884633,31.8791851 16.6884633,54.7772744 C16.6884633,77.6763778 35.2529259,96.2386142 58.1547756,96.2386142 C81.0556112,96.2386142 99.6200738,77.6763778 99.6200738,54.7772744 C99.6200738,31.8791851 81.0556112,13.3159346 58.1547756,13.3159346 L58.1547756,13.3159346 Z M56.8577174,65.1829158 C56.8577174,65.8136221 56.5240722,66.3976846 55.9815186,66.7140518 C55.4440355,67.026363 54.7858723,67.027377 54.2453468,66.7211498 C54.2412903,66.7181078 54.2352056,66.7160798 54.230135,66.7130378 L46.8645886,62.4197728 L46.8645886,78.360826 C46.8645886,78.9915324 46.5319576,79.5755949 45.9894039,79.8909481 C45.7186342,80.0481177 45.4164267,80.1282235 45.1142192,80.1282235 C44.8120118,80.1282235 44.5098043,80.0481177 44.2380204,79.8909481 L39.8357298,77.3265486 C39.2941902,77.0101815 38.9595309,76.427133 38.9595309,75.7964266 L38.9595309,57.8131826 L31.845486,53.6679613 C31.3029324,53.3515941 30.9692872,52.7675316 30.9692872,52.1368252 L30.9692872,45.2649648 C30.9692872,44.6332444 31.3029324,44.0501959 31.845486,43.7348427 C32.3870256,43.4194895 33.05533,43.4194895 33.5968696,43.7348427 L55.9815186,56.7748493 C56.5240722,57.0922305 56.8577174,57.675279 56.8577174,58.3069994 L56.8577174,65.1829158 L56.8577174,65.1829158 Z M57.2359838,37.6447743 C57.2359838,38.5198541 56.7715173,39.329024 56.0149845,39.7701129 L49.5844558,43.5168333 C49.3745332,43.639527 49.244726,43.8646344 49.244726,44.1079938 L49.244726,48.9102855 C49.244726,49.4385781 48.6788476,49.7721832 48.2214799,49.5065159 C45.4945138,47.91961 38.0711627,43.6020091 35.355352,42.0272711 C34.9000125,41.7636318 34.9091396,41.1126454 35.3634649,40.8479921 L54.6084014,29.6362228 C55.149941,29.3208696 55.8182454,29.3208696 56.359785,29.6362228 C56.9023386,29.95259 57.2359838,30.5356385 57.2359838,31.1663449 L57.2359838,37.6447743 L57.2359838,37.6447743 Z M59.4508197,31.1663449 C59.4508197,30.5356385 59.7844649,29.95259 60.3280327,29.6362228 C60.8695722,29.3208696 61.5368625,29.3208696 62.0794162,29.6362228 L81.3040703,40.8378521 C81.7675227,41.1065614 81.7746216,41.7707297 81.3121833,42.0394391 C78.5862314,43.619247 71.2237273,47.902372 68.485606,49.494348 C68.0201254,49.7650853 67.4420775,49.4264101 67.4420775,48.8879775 L67.4420775,44.1161057 C67.4420775,43.8676764 67.3102421,43.637499 67.0952488,43.5127773 L60.3280327,39.5683274 C59.7844649,39.2529742 59.4508197,38.6699257 59.4508197,38.0382053 L59.4508197,31.1663449 L59.4508197,31.1663449 Z M85.3392499,52.1368252 C85.3392499,52.7675316 85.0066189,53.3515941 84.4640652,53.6679613 L77.3490062,57.8131826 L77.3490062,75.7964266 C77.3490062,76.427133 77.015361,77.0101815 76.4728074,77.3265486 L72.0705167,79.8909481 C71.7987328,80.0481177 71.4975395,80.1282235 71.195332,80.1282235 C70.8921104,80.1282235 70.5909171,80.0481177 70.3191332,79.8909481 C69.7765795,79.5755949 69.4439485,78.9915324 69.4439485,78.360826 L69.4439485,62.4197728 L62.0794162,66.7130378 C62.0743456,66.7160798 62.0682609,66.7181078 62.0631903,66.7211498 C61.523679,67.027377 60.8655157,67.026363 60.3280327,66.7140518 C59.7844649,66.3976846 59.4508197,65.8136221 59.4508197,65.1829158 L59.4508197,58.3069994 C59.4508197,57.675279 59.7844649,57.0922305 60.3280327,56.7748493 L82.7126817,43.7348427 C83.2532071,43.4194895 83.9215115,43.4194895 84.4640652,43.7348427 C85.0066189,44.0501959 85.3392499,44.6332444 85.3392499,45.2649648 L85.3392499,52.1368252 L85.3392499,52.1368252 Z" id="Fill-12" fill="#FFFFFF"></path>
                </g>
            </g>
        </g>
    </g>
</svg>