<?xml version="1.0" encoding="UTF-8" standalone="no"?>
<svg width="3804px" height="729px" viewBox="0 0 3804 729" version="1.1" xmlns="http://www.w3.org/2000/svg" xmlns:xlink="http://www.w3.org/1999/xlink" xmlns:sketch="http://www.bohemiancoding.com/sketch/ns">
    <!-- Generator: Sketch 3.4 (15588) - http://www.bohemiancoding.com/sketch -->
    <title>Critters Copy 2</title>
    <desc>Created with Sketch.</desc>
    <defs></defs>
    <g id="Page-1" stroke="none" stroke-width="1" fill="none" fill-rule="evenodd" sketch:type="MSPage">
        <g id="Critters-Copy-2" sketch:type="MSArtboardGroup">
            <path d="M3803.99998,652.5 C3803.99998,652.5 3803.99998,142.036167 3803.99998,142.494951 C3762.92452,142.859154 3595.66414,70.4384236 3389.50001,89.0000001 C3269.59829,99.7951126 3136.51829,140.138225 3007.49998,142.494952 C2905.39473,144.360068 2804.7944,84.7985289 2716.49998,89.0000001 C2554.93728,96.6879264 2422.26018,142.407228 2393.12061,142.494953 C2293.33465,142.795362 2185.56031,89.0000002 2075.62065,89.0000002 C1965.68098,89.0000002 1849.58594,121.972814 1797.62065,121.911861 C1744.51592,121.849572 1618.4015,89.0000025 1532.62058,89 C1446.83967,88.9999975 1383.24119,121.911861 1273.62058,121.911861 C1163.99998,121.911862 1102.42144,93.5143513 925.499979,88.9999999 C808.821351,86.0228126 674.389694,122.072995 546.999979,121.911862 C259.830451,121.548627 -2.10227618e-05,88.9999999 -2.10227618e-05,88.9999999 L0.0936061967,666.281718 L3803.99998,652.5 Z" id="Path-261-Copy" fill="#0CB1FF" sketch:type="MSShapeGroup"></path>
            <path d="M7.84943604e-05,635.830878 L7.84943616e-05,224.499997 C7.84943616e-05,224.499997 56.8189451,165.237073 215.999991,183.281718 C342.094696,197.57572 436.363433,248.412294 569.000021,251.000002 C719.271632,253.931766 830.946079,203.040377 883.000021,203.040377 C1039.00002,203.040376 1156.99996,251.000004 1237.12063,251.000002 C1349.74123,251.000001 1447.12063,183.281718 1579.12063,183.281718 C1711.12063,183.281718 1759.64632,240.500002 1892.12063,251.000002 C2024.59493,261.500002 2167.12075,203.040377 2268.62075,203.040377 C2370.12075,203.040377 2433.42448,251 2539.62075,251 C2568.57336,251 2667.44955,231.578056 2808.00002,224.499999 C2888.91398,220.425209 3026.38529,274.972116 3121.50002,271.000002 C3266.99676,264.923872 3408.59573,219.651141 3526.50002,203.040377 C3688.71602,180.186826 3804.00002,251.000002 3804.00002,251.000002 L3804.00002,628.50001 L7.84943604e-05,635.830878 Z" id="Path-261" fill-opacity="0.7" fill="#008AF0" sketch:type="MSShapeGroup"></path>
            <path d="M2.1011645e-05,566.668578 C2.1011645e-05,566.668578 393.498205,602.419637 785.500021,602.612461 C1137.9744,602.785842 1488.2755,567.451906 1566.63011,566.668573 C1838.43082,563.951307 2039.05545,573.607774 2120.12063,579.422576 C2357.12063,596.422576 2444.63011,593.927521 2553.63011,572.927521 C2589.34415,566.046835 2787.45789,546.482399 2968.50002,545.499999 C3100.82006,544.781983 3242.21149,599.122845 3373.00002,602.612461 C3609.41398,608.920309 3804.89021,566.668578 3804.8902,566.668578 C3804.89016,566.668578 3804.00002,730.427526 3804.00002,730.427526 L2.10227631e-05,730.427533 L2.1011645e-05,566.668578 Z" id="Path-450" fill="#2D6BB4" sketch:type="MSShapeGroup"></path>
            <g id="Oval-64-Copy-3-+-Oval-64-Copy-4-+-Oval-64-Copy-2" sketch:type="MSLayerGroup" transform="translate(1304.000000, 448.472546) scale(-1, -1) rotate(-90.000000) translate(-1304.000000, -448.472546) translate(1262.000000, 411.472546)" fill="#FFFFFF" opacity="0.5">
                <ellipse id="Oval-64-Copy-3" sketch:type="MSShapeGroup" cx="74.8235294" cy="29.0315789" rx="9.03529412" ry="8.96842105"></ellipse>
                <ellipse id="Oval-64-Copy-4" sketch:type="MSShapeGroup" cx="45.6346586" cy="9.74987032" rx="9.03529412" ry="8.96842105"></ellipse>
                <ellipse id="Oval-64-Copy-2" sketch:type="MSShapeGroup" cx="18.5287762" cy="55.9368421" rx="18.0705882" ry="17.9368421"></ellipse>
            </g>
            <g id="Narwhal-Copy" sketch:type="MSLayerGroup" transform="translate(1647.755124, 388.494252) rotate(51.000000) translate(-1647.755124, -388.494252) translate(1502.255124, 247.994252)">
                <path d="M0.414173425,230.299655 C0.414173425,219.773009 29.4736241,211.239476 40.0381877,211.239476 C48.6436203,211.239476 55.9218545,216.901493 58.3253237,224.690692 C63.3304236,228.138042 66.6132659,233.921108 66.6132659,240.473685 C66.6132659,251.038249 58.0797331,280.0977 47.5530869,280.0977 C38.9535914,280.0977 31.6842376,260.704329 29.3108046,247.843795 C16.6918893,244.940191 0.414173425,238.178146 0.414173425,230.299655 Z" id="Oval-52" fill="#FFFFFF" sketch:type="MSShapeGroup"></path>
                <path d="M190.69272,253.089779 C203.688763,250.798226 207.92087,213.192947 205.629317,200.196903 C203.337764,187.20086 190.944718,178.523156 177.948675,180.814709 C164.952632,183.106262 156.274928,195.499308 158.566481,208.495351 C160.858034,221.491395 177.696676,255.381332 190.69272,253.089779 L190.69272,253.089779 Z" id="Oval-52-Copy-2" fill="#FFFFFF" sketch:type="MSShapeGroup"></path>
                <path d="M84.9105552,164.619086 C66.5534038,194.32317 28.9180606,210.271397 48.0522261,232.428624 C70.773382,258.73956 171.285941,213.135631 198.36396,191.058134 C225.44198,168.980637 228.973915,129.754061 206.252759,103.443125 C183.531603,77.1321885 142.250445,73.8180143 118.610714,98.7044436 C98.137832,120.257012 102.762417,135.732622 84.9105552,164.619086 L84.9105552,164.619086 Z" id="Oval-51" fill="#FFFFFF" sketch:type="MSShapeGroup"></path>
                <path d="M219.223344,152.741536 C227.888311,145.676737 228.583082,122.944969 225.553595,119.436844 C222.524107,115.92872 219.859311,130.574203 211.194345,137.639002 C202.529379,144.703801 190.514385,148.521821 193.543873,152.029946 C196.57336,155.538071 210.558378,159.806335 219.223344,152.741536 L219.223344,152.741536 Z" id="Oval-56" fill="#0293FF" sketch:type="MSShapeGroup"></path>
                <ellipse id="Oval-55" fill="#000000" sketch:type="MSShapeGroup" cx="183.90176" cy="128.548989" rx="8.10703812" ry="7.87737699"></ellipse>
                <path d="M196.346392,100.522058 C196.346392,100.522058 193.850549,104.725386 199.981065,109.143696 C206.111581,113.562006 210.090315,108.349761 210.090315,108.349761 C210.090315,108.349761 295.201724,4.63256409 290.67793,0.910531485 C286.154136,-2.81150112 196.346392,100.522058 196.346392,100.522058 L196.346392,100.522058 Z" id="Path-368" fill="#D8D8D8" sketch:type="MSShapeGroup"></path>
            </g>
            <g id="Snail" sketch:type="MSLayerGroup" transform="translate(2475.500000, 540.500000) scale(-1, 1) translate(-2475.500000, -540.500000) translate(2390.000000, 488.000000)">
                <path d="M117.303753,62.6889065 C119.883945,57.2644654 121.309486,51.3079199 121.309486,45.0579775 C121.309486,19.849964 101.756678,0.29258427 73.150085,0.29258427 C44.5434924,0.29258427 24.9906841,28.9200764 24.9906841,54.1280899 C24.9906841,62.7812841 26.8660801,69.8032841 30.486455,75.2943228 C30.1099464,76.0953752 29.8096588,77.0184192 29.6448578,78.0754459 C28.8017803,83.4829128 28.7812561,88.3134001 28.7812561,88.3134001 L126.393498,71.1017288 C126.393498,71.1017288 125.078866,66.6596731 122.474259,64.4130267 C120.640297,62.8311126 118.443291,62.6547711 117.303753,62.6889065 Z" id="Oval-317" fill="#2D6BB4" sketch:type="MSShapeGroup"></path>
                <path d="M4.62114896,104.16 C50.0848019,104.16 95.5909182,104.16 141.097034,104.16 C150.739706,104.16 158.556636,96.4313281 158.556636,86.8975281 C158.556636,78.4284841 153.552204,71.3838819 145.41509,69.916002 C144.914506,69.8257 154.005978,53.7640787 157.974649,41.8395505 C160.318046,34.7984272 162.591362,27.0495683 162.33955,23.4067415 C162.146283,20.6108708 159.668425,21.0660674 159.429616,21.0660674 C159.318238,21.0660674 157.695498,19.5629864 156.519682,22.2364045 C154.690642,26.3950403 153.266786,36.7856873 150.408822,44.1802247 C145.117476,57.8707567 137.608884,69.4179048 136.441141,69.3308352 C135.289544,69.2449696 134.392435,69.1427467 132.76916,69.0710819 C132.112688,69.0420998 137.479183,52.005977 138.187101,38.0359558 C138.721696,27.4862739 137.625603,19.6144405 137.023127,19.6031461 C136.84796,19.5998623 131.70396,18.1978694 131.494253,20.4808989 C131.100383,24.768869 132.612252,34.4307033 131.494253,41.8395513 C129.46802,55.2671651 126.087235,68.9215376 125.405371,68.9229301 C117.96322,68.9381285 107.721853,69.4205544 94.2471035,71.0979775 C63.6928008,74.9015728 35.1891999,82.1503294 27.6096243,84.8494387 C13.641943,89.8233713 1.71623896,100.734731 1.12922865,102.11191 C0.256248594,104.16 3.71986002,104.16 4.62114896,104.16 Z" id="Oval-316" fill="#0CB1FF" sketch:type="MSShapeGroup"></path>
                <path d="M143.557466,92.4767886 C146.826567,92.4767886 149.625,94.4935853 149.625,91.216789 C149.625,87.9399927 146.826567,84.6460046 143.557466,84.6460046 C140.288365,84.6460046 138.308824,87.9399927 138.308824,91.216789 C138.308824,94.4935853 140.288365,92.4767886 143.557466,92.4767886 Z" id="Oval-320" fill="#2D6BB4" sketch:type="MSShapeGroup" transform="translate(143.966912, 88.868394) scale(1, -1) translate(-143.966912, -88.868394) "></path>
                <ellipse id="Oval-268-Copy-3" stroke="#0CB1FF" stroke-width="0.879999967" fill="#0CB1FF" sketch:type="MSShapeGroup" cx="134.955882" cy="14.7" rx="8.38235294" ry="8.4"></ellipse>
                <ellipse id="Oval-268-Copy-2" stroke="#0CB1FF" stroke-width="0.879999967" fill="#0CB1FF" sketch:type="MSShapeGroup" cx="160.102941" cy="16.38" rx="8.38235294" ry="8.4"></ellipse>
                <ellipse id="Oval-268" fill="#000000" sketch:type="MSShapeGroup" cx="135.31572" cy="14.7478481" rx="5.02816377" ry="5.04"></ellipse>
                <ellipse id="Oval-268-Copy" fill="#000000" sketch:type="MSShapeGroup" cx="159.855641" cy="16.7817913" rx="5.02816377" ry="5.04"></ellipse>
            </g>
            <g id="Bubbles" sketch:type="MSLayerGroup" transform="translate(2327.500000, 486.000000) scale(1, -1) rotate(-90.000000) translate(-2327.500000, -486.000000) translate(2304.500000, 470.500000)" fill="#FFFFFF" opacity="0.5">
                <ellipse id="Oval-64-Copy-3" sketch:type="MSShapeGroup" cx="41.227105" cy="15.6366999" rx="4.76875544" ry="4.83048161"></ellipse>
                <ellipse id="Oval-64-Copy-4" sketch:type="MSShapeGroup" cx="25.8214542" cy="5.25137803" rx="4.76875544" ry="4.83048161"></ellipse>
                <ellipse id="Oval-64-Copy-2" sketch:type="MSShapeGroup" cx="9.77933881" cy="21.2710018" rx="9.53751087" ry="9.66096322"></ellipse>
            </g>
        </g>
    </g>
</svg>