<?xml version="1.0" encoding="utf-8"?>
<!-- Generator: Adobe Illustrator 19.1.0, SVG Export Plug-In . SVG Version: 6.00 Build 0)  -->
<svg version="1.1" id="Layer_1" xmlns:sketch="http://www.bohemiancoding.com/sketch/ns"
	 xmlns="http://www.w3.org/2000/svg" xmlns:xlink="http://www.w3.org/1999/xlink" x="0px" y="0px" viewBox="-374 290 42 34"
	 style="enable-background:new -374 290 42 34;" xml:space="preserve">
<style type="text/css">
	.st0{fill:#FFFFFF;}
</style>
<g id="Page-1" sketch:type="MSPage">
	<g id="Engineering-Elements" transform="translate(-655.000000, -4854.000000)" sketch:type="MSArtboardGroup">
		<g id="Ocean" transform="translate(575.000000, 4381.000000)" sketch:type="MSLayerGroup">
			<path class="st0" d="M-263.2,764.2c1.3,0.3,2.1,1,2.8,1.9c0.7,0.9,1.6,0.8,2.5,0.4c1.1-0.3,2-1,3.2-1.1l0,0
				c-0.3,1.6-1.5,2.6-2.8,3.8c1.5,0,2.6-0.8,3.9-0.7c-0.2,0.6-0.8,1-0.8,1s-2.9,2.2-3,4.6c-0.4,9.4-5.4,16.6-13.8,20
				c-7.1,2.9-14.3,2.3-21.1-1.2c1.7-0.6,3.6-0.5,5.4-1c2-0.5,4-1.2,5.8-3c-3.1,0-4.8-1.8-6.5-3.5c-0.4-0.4-0.8-0.9-0.6-1.4
				c0.2-0.6,0.8-0.3,1.3-0.4c0.5-0.1,1.1,0.1,1.5-0.6c-3.2-0.8-5.1-2.8-5.9-5.9c-0.2-0.9-0.4-1.9,1.2-1.3c0.4,0.2,0.9,0.4,1.2-0.1
				c0.2-0.4-0.3-0.6-0.5-0.9c-1.8-2.2-2.4-4.7-1.6-7.5c0.5-1.5,0.7-1.5,1.9-0.4c4.1,3.7,8.6,6.4,14.3,6.9c1.3,0.1,1.6-0.2,1.5-1.4
				c-0.1-3.6,1.6-6.1,4.8-7.6C-268.2,764.8-265.9,763.8-263.2,764.2z"/>
		</g>
	</g>
</g>
</svg>
